<?xml version="1.0" standalone="no"?>
<!DOCTYPE svg PUBLIC "-//W3C//DTD SVG 20010904//EN"
 "http://www.w3.org/TR/2001/REC-SVG-20010904/DTD/svg10.dtd">
<svg version="1.0" xmlns="http://www.w3.org/2000/svg"
 width="252.000000pt" height="200.000000pt" viewBox="0 0 252.000000 200.000000"
 preserveAspectRatio="xMidYMid meet">

<g transform="translate(0.000000,200.000000) scale(0.100000,-0.100000)"
fill="#000000" stroke="none">
<path d="M565 1851 c-217 -104 -371 -408 -436 -859 -18 -127 -7 -387 21 -482
61 -211 174 -332 311 -332 101 0 200 77 349 273 l91 119 367 0 367 -1 65 -97
c87 -129 190 -234 265 -268 144 -66 278 -3 359 170 62 129 71 186 71 421 -1
194 -3 219 -29 329 -107 455 -311 738 -545 753 -61 4 -69 3 -114 -27 -26 -18
-69 -57 -94 -86 l-47 -54 -256 0 c-241 0 -258 -1 -274 -19 -10 -11 -18 -36
-19 -57 -1 -28 5 -42 27 -60 27 -24 28 -24 292 -24 204 0 272 3 298 14 18 8
53 39 77 69 75 94 118 107 187 57 127 -91 256 -351 311 -625 58 -287 23 -575
-84 -683 -51 -51 -75 -53 -136 -13 -54 37 -103 94 -184 219 -35 53 -73 107
-84 120 l-20 22 -435 0 c-239 0 -442 -3 -451 -6 -9 -4 -50 -58 -91 -121 -84
-129 -193 -248 -238 -259 -47 -11 -94 21 -132 91 -156 282 -46 943 200 1203
88 93 143 106 195 47 17 -20 31 -40 31 -45 0 -13 54 -40 80 -40 30 0 70 44 70
78 0 30 -59 117 -101 151 -79 61 -168 68 -264 22z"/>
<path d="M1855 1429 c-40 -12 -58 -27 -84 -69 -72 -119 54 -258 183 -202 57
26 86 70 86 132 0 97 -93 168 -185 139z"/>
<path d="M632 1350 c-18 -17 -22 -32 -22 -80 l0 -60 -56 0 c-48 0 -59 -4 -85
-29 -35 -35 -37 -70 -6 -106 18 -22 34 -27 84 -32 l62 -6 3 -60 c3 -52 7 -63
30 -80 20 -15 35 -18 62 -13 44 8 66 45 66 111 l0 45 39 0 c82 0 121 29 121
88 0 51 -29 75 -97 80 l-61 4 -4 61 c-4 47 -9 64 -27 78 -31 25 -82 24 -109
-1z"/>
<path d="M1603 1140 c-44 -22 -83 -83 -83 -128 0 -37 25 -86 59 -115 26 -21
43 -27 82 -27 92 0 149 53 149 140 0 113 -108 180 -207 130z"/>
</g>
</svg>
